<?xml version="1.0" encoding="UTF-8" ?>
<!DOCTYPE svg PUBLIC "-//W3C//DTD SVG 1.1//EN" "http://www.w3.org/Graphics/SVG/1.1/DTD/svg11.dtd">
<svg width="520pt" height="675pt" viewBox="0 0 520 675" version="1.1" xmlns="http://www.w3.org/2000/svg">
<g id="#ffffffff">
<path fill="#ffffff" opacity="1.00" d=" M 332.08 39.46 C 339.08 37.05 346.51 35.50 353.94 35.82 C 357.24 35.91 361.36 37.21 362.04 40.92 C 364.24 48.61 366.77 56.21 368.86 63.93 C 369.65 67.19 366.58 69.55 363.89 70.58 C 341.27 80.99 318.21 90.83 294.02 97.00 C 286.39 98.87 278.41 100.10 270.58 98.79 C 266.30 98.03 261.97 97.68 257.64 97.41 C 257.32 97.08 256.68 96.43 256.36 96.10 C 255.95 87.73 255.48 79.36 255.05 70.99 C 254.13 67.27 252.80 63.19 254.72 59.52 C 257.67 56.21 261.91 54.48 265.99 52.98 C 276.49 49.07 287.80 48.41 298.60 45.69 C 300.01 45.31 301.48 45.50 302.92 45.56 C 297.02 49.53 290.22 51.82 283.86 54.89 C 282.55 54.15 281.26 53.38 280.02 52.55 C 274.70 52.45 269.68 54.51 265.10 57.03 C 262.83 58.43 260.47 60.35 260.30 63.23 C 261.79 63.81 263.21 64.97 264.90 64.81 C 269.94 63.96 274.86 62.36 279.99 62.15 C 282.41 62.15 284.45 60.75 286.54 59.75 C 301.55 52.61 316.87 46.15 332.08 39.46 M 332.02 51.06 C 326.93 54.46 321.44 59.82 322.85 66.56 C 330.46 66.23 335.06 59.71 340.85 55.75 C 345.25 52.35 349.78 49.06 354.97 46.96 C 357.08 46.44 356.40 44.03 356.59 42.42 C 347.51 40.51 338.76 45.42 332.02 51.06 Z" />
<path fill="#ffffff" opacity="1.00" d=" M 21.34 61.71 C 23.17 60.87 25.10 60.34 27.11 60.18 C 27.71 62.36 27.97 64.62 27.78 66.88 C 24.61 67.49 20.92 65.22 21.34 61.71 Z" />
<path fill="#ffffff" opacity="1.00" d=" M 11.38 67.44 C 13.52 67.23 15.97 66.73 17.64 68.48 C 66.83 104.60 116.68 139.83 165.46 176.52 C 178.61 186.38 191.81 196.18 205.00 205.99 C 206.67 207.32 208.06 208.98 209.35 210.68 C 209.74 213.06 209.89 215.48 209.71 217.89 C 209.15 217.87 208.05 217.81 207.49 217.78 C 207.13 216.71 206.77 215.64 206.41 214.58 C 205.11 214.67 203.80 214.76 202.50 214.85 C 202.16 213.11 201.82 211.38 201.48 209.66 C 199.73 209.88 197.99 210.13 196.24 210.35 C 196.05 208.73 195.86 207.11 195.64 205.49 C 193.59 205.52 191.55 205.57 189.51 205.50 C 189.18 203.52 189.27 201.43 188.53 199.55 C 186.69 198.00 184.75 200.19 182.80 200.46 C 181.17 198.37 182.67 195.69 182.69 193.35 C 180.62 193.26 178.33 193.09 178.08 195.76 C 176.32 195.44 175.68 193.67 174.73 192.43 C 175.08 191.03 175.34 189.61 175.58 188.19 C 173.02 187.67 170.72 188.95 168.40 189.78 C 168.25 187.87 168.15 185.96 168.06 184.05 C 167.58 183.69 166.63 182.96 166.15 182.60 C 164.63 183.21 163.14 183.87 161.66 184.56 C 158.65 182.81 162.26 178.54 159.11 177.23 C 157.41 178.23 155.63 179.08 153.64 178.47 C 152.41 176.30 153.57 173.69 152.34 171.64 C 150.19 172.07 148.09 172.74 145.96 173.25 C 145.56 172.69 144.75 171.55 144.35 170.99 C 144.61 170.15 145.12 168.49 145.38 167.66 C 144.20 163.96 140.47 165.80 137.73 166.26 C 135.67 164.86 136.79 161.98 136.18 159.89 C 133.49 159.37 130.77 160.20 128.10 159.80 C 124.40 158.29 126.28 152.70 122.88 150.95 C 121.33 150.78 120.41 152.34 119.24 153.04 C 117.71 152.53 116.38 151.63 115.32 150.41 C 115.82 148.76 115.97 147.06 115.76 145.35 C 112.91 144.81 110.83 147.32 107.98 146.80 C 107.77 144.58 107.58 142.37 107.37 140.15 C 104.92 141.01 102.50 142.20 99.84 141.44 C 100.25 139.11 102.05 136.79 100.31 134.56 C 98.26 134.40 96.32 134.97 94.59 136.08 C 93.03 134.12 92.99 131.33 91.40 129.47 C 89.26 128.75 86.94 128.88 84.78 128.26 C 83.39 126.56 83.97 124.18 83.63 122.16 C 81.59 122.42 79.56 122.79 77.53 123.08 C 76.94 121.18 76.30 119.30 75.59 117.45 C 73.75 117.55 71.91 117.78 70.07 117.70 C 66.23 116.67 66.35 110.69 61.96 110.66 C 59.89 110.58 58.32 109.24 56.73 108.09 C 56.71 106.71 56.69 105.34 56.68 103.96 C 55.93 103.15 55.18 102.35 54.42 101.56 C 53.25 102.33 52.09 103.10 50.93 103.88 C 47.90 102.73 48.16 99.63 47.84 96.98 C 45.86 93.71 42.11 98.20 39.61 95.42 C 39.60 93.71 39.66 92.00 39.36 90.31 C 38.39 88.71 36.24 90.29 34.86 90.28 C 34.15 90.06 32.73 89.62 32.02 89.40 C 32.17 88.14 32.31 86.87 32.49 85.62 C 31.17 84.86 29.66 84.91 28.21 85.17 C 27.78 84.97 26.91 84.57 26.48 84.37 C 25.97 81.90 26.06 78.87 23.37 77.69 C 20.34 78.74 16.85 78.98 14.22 76.80 C 10.83 75.04 10.48 70.76 11.38 67.44 Z" />
<path fill="#ffffff" opacity="1.00" d=" M 382.80 76.63 C 392.60 75.65 401.63 80.39 411.19 81.42 C 413.50 81.85 415.52 83.12 417.50 84.33 C 417.97 86.61 418.16 88.95 417.42 91.20 C 416.44 91.34 415.47 91.49 414.50 91.64 C 413.74 89.85 413.74 86.70 410.93 87.76 C 407.41 89.35 404.20 91.55 400.94 93.60 C 389.47 100.74 378.27 108.35 367.74 116.82 C 359.51 123.03 351.25 129.23 342.63 134.90 C 332.36 141.35 321.97 148.06 310.11 151.17 C 294.36 155.22 277.27 155.32 261.89 149.72 C 255.41 147.78 249.15 145.12 243.23 141.85 C 238.47 139.13 233.61 136.25 229.98 132.06 C 227.98 129.16 226.09 126.17 224.43 123.06 C 224.69 121.14 225.15 118.98 226.58 117.57 C 232.58 112.64 239.97 108.84 247.96 109.39 C 249.14 112.85 250.61 116.63 253.88 118.65 C 263.01 123.86 272.12 129.33 282.13 132.72 C 288.04 134.31 294.20 132.74 300.01 131.42 C 315.62 127.29 330.49 120.65 344.56 112.78 C 354.14 107.32 362.82 100.45 370.60 92.66 C 373.82 89.79 376.67 86.52 380.06 83.86 C 382.23 81.92 380.83 78.49 382.80 76.63 Z" />
<path fill="#ffffff" opacity="1.00" d=" M 384.23 121.12 C 384.83 120.17 385.62 119.35 386.26 118.42 C 386.22 118.78 386.14 119.52 386.11 119.89 C 387.05 119.99 388.93 120.21 389.87 120.32 C 389.83 122.44 390.43 124.70 389.48 126.69 C 387.70 124.87 385.90 123.05 384.23 121.12 Z" />
<path fill="#ffffff" opacity="1.00" d=" M 368.39 123.65 C 373.99 121.83 380.64 121.85 385.47 125.60 C 387.52 126.63 385.99 129.23 386.29 131.02 C 390.07 132.53 393.76 134.47 396.92 137.06 C 400.01 141.16 401.56 147.08 398.84 151.79 C 396.39 155.95 391.51 157.20 387.60 159.45 C 385.48 162.95 385.53 167.24 384.73 171.14 C 382.85 180.80 379.95 190.34 375.38 199.09 C 375.78 199.20 376.58 199.42 376.99 199.53 C 376.52 199.49 375.60 199.42 375.13 199.39 C 372.93 203.91 369.78 207.85 366.08 211.22 C 359.40 220.09 349.15 226.33 338.09 227.70 C 328.39 228.74 318.31 227.70 309.42 223.50 C 300.38 219.46 290.93 215.37 284.03 208.04 C 274.70 196.02 266.47 182.29 264.73 166.90 C 264.43 164.31 262.56 161.52 263.90 158.99 C 267.26 159.42 270.58 160.23 273.93 160.75 C 276.89 163.82 278.08 169.13 282.90 169.96 C 286.60 169.59 286.07 165.03 286.38 162.33 C 290.21 162.64 293.87 160.46 297.65 161.51 C 298.63 165.29 295.13 168.47 296.03 172.06 C 299.11 175.62 302.58 179.13 306.85 181.26 C 309.50 181.84 311.45 179.79 312.18 177.48 C 309.18 175.71 305.88 173.70 304.90 170.10 C 303.54 166.84 304.85 163.40 305.53 160.16 C 312.58 158.31 319.35 155.49 325.84 152.19 C 328.10 151.11 329.70 153.30 331.27 154.50 C 332.88 156.26 335.37 155.43 337.44 155.39 C 338.62 152.30 338.51 148.99 338.49 145.74 C 344.82 141.05 351.13 136.32 357.39 131.53 C 359.61 129.80 361.92 127.51 364.89 127.39 C 369.83 129.17 374.69 131.34 379.26 133.97 C 379.95 133.59 380.59 133.15 381.19 132.62 C 377.49 129.03 372.86 126.76 368.23 124.65 C 368.27 124.40 368.35 123.90 368.39 123.65 M 338.29 167.82 C 337.74 170.73 340.62 171.74 342.64 172.91 C 342.71 173.77 342.78 174.64 342.86 175.51 C 335.34 182.83 326.16 188.13 316.89 192.91 C 309.85 195.64 302.19 197.70 294.60 196.40 C 294.28 194.40 293.99 192.40 293.70 190.41 C 292.68 190.44 291.66 190.48 290.65 190.53 C 290.05 194.95 289.42 199.39 289.16 203.84 C 290.02 207.23 292.89 209.54 295.14 212.01 C 295.57 212.23 296.42 212.66 296.85 212.88 C 297.49 212.81 298.76 212.67 299.40 212.60 C 299.16 211.19 298.95 209.76 298.75 208.35 C 312.82 209.55 327.74 206.89 339.20 198.24 C 344.90 193.92 348.59 187.54 354.41 183.35 C 355.20 184.05 356.00 184.74 356.80 185.44 C 357.68 185.39 359.42 185.30 360.29 185.26 C 360.24 182.99 359.26 180.96 358.42 178.92 C 358.01 176.66 359.12 173.68 356.57 172.37 C 351.32 168.67 344.60 167.57 338.29 167.82 M 331.55 210.82 C 327.40 213.37 322.47 213.80 317.74 214.25 C 318.04 215.35 318.35 216.45 318.66 217.56 C 324.77 218.37 330.85 216.54 335.70 212.82 C 337.42 210.04 333.11 209.70 331.55 210.82 Z" />
<path fill="#ffffff" opacity="1.00" d=" M 116.27 175.60 C 112.31 172.29 113.78 162.56 120.13 163.64 C 121.68 166.74 123.19 170.73 121.01 173.90 C 119.82 174.99 117.91 176.33 116.27 175.60 Z" />
<path fill="#ffffff" opacity="1.00" d=" M 127.24 170.45 C 129.92 171.64 132.47 173.09 134.83 174.84 C 131.69 176.52 127.07 174.10 127.24 170.45 Z" />
<path fill="#ffffff" opacity="1.00" d=" M 347.26 175.47 C 348.59 174.98 349.97 174.63 351.39 174.41 C 352.52 176.22 352.54 178.39 350.96 179.95 C 345.09 186.96 339.35 194.53 331.08 198.87 C 320.46 205.17 307.55 206.17 295.63 203.76 C 295.28 202.52 294.90 201.29 294.60 200.04 C 303.91 199.38 313.93 199.59 322.13 194.42 C 331.08 188.98 340.58 183.74 347.26 175.47 Z" />
<path fill="#ffffff" opacity="1.00" d=" M 137.38 188.48 C 140.18 186.26 141.98 183.16 143.84 180.18 C 162.32 194.37 181.07 208.23 198.93 223.20 C 200.98 225.08 201.56 227.90 201.57 230.58 C 197.00 232.06 193.24 228.54 190.46 225.43 C 186.67 224.44 185.76 228.41 184.24 230.90 C 180.28 228.26 177.80 223.84 174.28 220.64 C 170.73 217.87 166.24 215.19 161.58 216.75 C 156.35 218.57 155.29 224.78 153.16 229.21 C 152.75 229.30 151.92 229.47 151.51 229.56 C 151.27 225.30 152.39 221.05 154.23 217.24 C 155.54 215.22 157.19 213.41 157.99 211.10 C 156.52 207.94 153.30 206.38 150.68 204.35 C 145.68 200.87 141.03 196.92 135.81 193.77 C 135.36 195.27 134.96 196.79 134.60 198.31 C 138.37 201.27 142.57 203.69 146.12 206.91 C 147.64 207.88 146.65 209.64 146.40 211.02 C 144.49 216.93 143.01 223.08 139.80 228.47 C 134.59 237.51 129.20 246.47 123.14 254.98 C 118.31 261.14 113.48 267.70 106.52 271.61 C 104.80 272.65 102.81 272.56 100.92 272.16 C 99.61 269.66 98.54 266.93 98.90 264.05 C 100.36 248.69 105.85 233.97 113.21 220.49 C 118.69 208.14 127.30 197.39 137.38 188.48 Z" />
<path fill="#ffffff" opacity="1.00" d=" M 374.23 210.06 C 374.39 208.79 375.76 207.97 376.97 208.28 C 386.94 209.30 397.23 210.84 406.00 216.03 C 409.28 218.07 409.98 222.10 411.43 225.39 C 412.43 228.34 414.31 231.04 414.62 234.20 C 406.03 235.54 397.62 237.79 389.16 239.73 C 386.32 240.43 382.36 242.79 383.65 246.26 C 387.42 249.66 392.27 251.58 396.52 254.33 C 396.59 254.99 396.74 256.30 396.81 256.96 C 396.01 257.79 395.21 258.61 394.43 259.45 L 393.76 259.58 C 378.77 272.36 363.47 284.80 348.12 297.16 C 342.31 301.92 336.55 306.77 331.14 311.99 C 324.37 319.33 317.90 326.94 310.93 334.08 C 311.51 331.97 312.39 329.97 313.45 328.06 C 319.99 315.28 326.33 302.40 332.75 289.56 C 343.81 268.99 354.78 248.36 365.75 227.74 C 368.54 221.83 372.70 216.52 374.23 210.06 Z" />
<path fill="#ffffff" opacity="1.00" d=" M 278.21 235.28 C 281.80 230.77 285.11 225.91 288.85 221.59 C 292.58 222.34 295.92 224.76 299.39 226.39 C 300.52 228.52 299.30 231.19 298.80 233.42 C 297.46 238.90 294.94 244.25 295.31 250.01 C 295.40 262.60 295.22 275.20 295.40 287.79 C 295.54 301.22 297.84 314.50 298.92 327.88 C 299.05 331.22 300.45 334.60 299.45 337.92 C 298.70 339.41 297.37 340.52 296.29 341.78 C 293.99 340.68 293.54 338.02 292.68 335.88 C 286.53 317.24 281.53 298.24 277.20 279.10 C 276.12 274.21 274.15 269.02 276.08 264.08 C 277.56 261.66 279.47 259.54 281.14 257.26 C 283.50 254.26 285.67 251.10 287.60 247.80 C 289.99 244.43 287.49 240.35 285.67 237.35 C 283.22 236.53 280.66 236.07 278.21 235.28 Z" />
<path fill="#ffffff" opacity="1.00" d=" M 160.56 224.61 C 164.87 222.07 171.01 222.88 174.25 226.79 C 180.21 232.63 184.74 241.11 182.44 249.64 C 179.20 253.39 173.69 251.98 169.70 250.38 C 165.32 247.50 162.81 242.69 160.68 238.07 C 158.99 233.85 157.89 228.67 160.56 224.61 Z" />
<path fill="#ffffff" opacity="1.00" d=" M 273.08 224.15 C 274.70 222.92 276.78 223.06 278.69 223.14 C 276.46 227.95 273.04 232.17 271.34 237.22 C 270.78 238.38 271.62 240.07 272.97 240.15 C 275.84 241.04 278.75 241.81 281.59 242.80 C 281.24 244.27 281.17 245.89 280.25 247.16 C 276.87 252.18 274.03 257.60 270.13 262.26 C 268.78 263.84 267.90 265.92 268.11 268.03 C 268.55 273.07 269.17 278.12 270.48 283.02 C 274.98 298.63 279.35 314.27 283.81 329.89 C 285.71 336.95 288.56 343.75 289.93 350.95 C 290.47 353.78 290.60 356.83 289.46 359.54 C 287.42 364.32 285.50 369.14 283.77 374.05 C 281.98 384.93 287.43 396.25 283.50 406.95 C 282.25 412.43 280.80 418.62 283.62 423.88 C 287.38 431.51 290.75 439.36 295.13 446.67 C 296.59 449.21 299.64 451.76 298.96 454.90 C 298.84 455.09 298.59 455.47 298.47 455.66 L 298.91 455.95 C 300.58 457.36 300.19 459.84 300.17 461.79 C 299.44 467.83 300.02 473.92 299.80 479.99 C 299.20 482.36 296.24 482.82 294.19 483.23 C 281.18 484.75 268.15 486.22 255.07 486.94 C 251.89 486.97 248.70 486.97 245.56 487.58 C 244.33 484.02 245.85 480.48 246.19 476.93 C 248.00 460.96 249.83 444.98 251.76 429.02 C 254.42 390.73 255.21 352.31 259.23 314.11 C 260.28 308.02 261.50 301.96 262.82 295.92 C 264.46 288.37 267.14 280.85 266.65 273.01 C 264.84 264.84 256.59 261.25 251.88 255.07 C 251.18 252.21 252.80 249.50 254.28 247.20 C 259.40 238.69 265.03 230.16 273.08 224.15 Z" />
<path fill="#ffffff" opacity="1.00" d=" M 418.44 223.27 C 418.77 223.13 419.44 222.87 419.78 222.73 C 426.54 224.63 433.07 227.27 439.22 230.68 C 442.48 231.84 444.82 234.45 446.45 237.42 C 455.36 252.54 465.90 266.72 473.28 282.70 C 480.80 297.30 488.26 311.93 495.13 326.85 C 496.70 330.50 499.28 333.98 499.16 338.13 C 499.06 340.29 497.04 341.36 495.62 342.64 C 477.62 357.91 458.69 372.24 438.08 383.83 C 431.17 372.81 420.54 364.71 409.41 358.30 C 401.47 353.62 392.50 351.19 384.02 347.78 C 389.31 343.20 395.82 340.42 401.53 336.45 C 409.50 331.48 417.45 326.49 425.25 321.25 C 432.77 316.60 439.76 311.17 446.44 305.39 C 446.54 304.82 446.74 303.70 446.84 303.14 C 445.35 303.38 443.84 303.64 442.55 304.45 C 436.30 307.93 430.03 311.36 423.82 314.90 C 422.81 315.54 421.65 315.82 420.52 316.10 C 417.69 303.73 415.01 290.07 420.44 278.01 C 422.20 273.61 423.40 268.95 425.76 264.81 C 425.74 264.12 425.71 262.75 425.69 262.06 C 420.85 270.36 415.63 278.46 411.37 287.08 C 409.64 290.37 409.27 294.23 409.73 297.87 C 410.77 305.64 410.72 313.73 413.93 321.04 C 412.10 321.84 410.35 322.79 408.73 323.92 C 398.12 330.95 387.15 337.44 376.73 344.74 C 373.43 347.67 369.97 350.52 367.45 354.18 C 367.64 355.50 368.10 356.75 368.34 358.07 C 364.72 362.22 361.36 366.60 358.56 371.35 C 355.40 372.65 351.91 370.10 348.53 370.45 C 346.09 376.86 344.07 383.96 345.59 390.82 C 346.54 390.09 347.63 389.44 348.11 388.28 C 350.06 384.31 352.04 380.36 353.90 376.35 C 359.37 377.30 363.95 380.90 369.09 382.89 C 385.39 389.84 402.07 395.87 418.46 402.57 C 418.69 404.02 418.98 405.50 418.48 406.94 C 416.27 415.65 414.51 424.57 410.75 432.78 C 408.66 436.55 407.51 440.83 407.53 445.15 C 408.46 443.95 409.35 442.71 410.21 441.45 C 414.49 434.73 417.50 427.37 420.95 420.21 C 421.49 420.33 422.55 420.56 423.08 420.68 C 429.16 431.63 435.80 442.33 440.58 453.94 C 441.95 457.16 443.58 460.48 443.57 464.05 C 443.87 465.60 442.03 465.98 441.01 466.53 C 428.68 470.84 416.11 474.89 403.10 476.43 C 389.65 477.45 376.08 478.57 362.62 477.09 C 352.05 475.36 341.10 475.48 330.91 471.85 C 328.58 471.12 327.10 469.05 325.33 467.53 C 314.69 456.88 303.84 446.20 295.58 433.53 C 293.10 428.94 290.82 424.24 288.74 419.46 C 286.30 413.47 290.11 407.66 291.31 401.88 C 292.44 398.54 290.48 395.31 290.07 392.03 C 289.41 387.10 288.78 381.97 290.19 377.10 C 293.18 367.38 297.95 358.20 304.67 350.53 C 310.99 343.88 316.92 336.88 323.06 330.07 C 333.41 319.33 343.15 307.90 354.89 298.62 C 370.76 285.92 386.46 273.00 402.34 260.31 C 404.14 258.81 406.66 256.67 405.47 254.05 C 401.78 251.14 397.76 248.61 393.57 246.46 C 397.79 243.39 403.26 243.79 408.13 242.59 C 413.66 241.39 419.52 241.62 424.79 239.34 C 423.20 233.78 420.65 228.58 418.44 223.27 M 363.17 297.38 C 361.43 298.37 360.70 300.25 361.49 302.13 C 375.00 302.63 388.54 304.27 402.05 303.29 C 403.30 301.64 402.35 299.56 401.76 297.86 C 399.44 292.16 397.38 286.36 395.04 280.66 C 393.40 280.47 391.64 280.04 390.10 280.91 C 380.99 286.16 372.42 292.35 363.17 297.38 M 435.81 366.42 C 433.51 368.69 433.58 372.06 434.73 374.88 C 436.85 378.89 443.77 378.44 445.17 374.07 C 445.04 369.52 440.65 364.46 435.81 366.42 M 298.57 370.70 C 295.19 375.75 292.68 382.86 296.63 388.32 C 301.10 392.91 308.84 388.55 309.58 382.90 C 310.33 378.06 310.33 372.97 308.56 368.35 C 304.94 367.14 301.68 369.11 298.57 370.70 M 321.29 373.43 C 320.40 376.92 319.84 380.51 319.87 384.12 C 320.96 387.98 325.29 389.62 329.02 389.24 C 334.02 384.20 336.12 375.88 332.27 369.57 C 328.08 368.83 324.65 371.37 321.29 373.43 M 321.45 409.50 C 317.28 413.15 319.02 419.29 320.25 423.91 C 323.28 425.56 326.66 425.94 329.74 424.15 C 331.15 422.11 332.81 420.20 333.87 417.94 C 334.76 414.64 334.29 411.18 334.49 407.82 C 333.81 406.75 333.18 405.65 332.41 404.67 C 328.04 403.29 324.40 406.82 321.45 409.50 M 297.67 407.69 C 295.90 413.35 294.06 420.00 297.94 425.22 C 299.88 426.19 301.98 426.99 304.18 426.40 C 309.57 423.82 310.28 417.19 311.64 412.05 C 312.50 409.84 311.21 407.79 310.20 405.92 C 306.00 404.06 301.38 405.37 297.67 407.69 Z" />
<path fill="#ffffff" opacity="1.00" d=" M 339.44 232.72 C 347.44 231.96 354.71 228.18 361.27 223.75 C 358.90 230.55 355.19 236.81 351.95 243.24 C 347.63 241.18 343.52 238.47 340.27 234.94 C 340.06 234.39 339.65 233.28 339.44 232.72 Z" />
<path fill="#ffffff" opacity="1.00" d=" M 206.46 236.58 C 206.95 233.99 207.17 231.27 208.56 228.98 C 224.61 241.09 240.50 253.42 256.45 265.68 C 258.96 268.24 261.20 271.69 261.29 275.37 C 259.83 278.12 256.17 278.70 253.67 280.28 C 253.91 277.38 254.18 274.49 254.55 271.62 C 251.86 270.44 249.06 271.40 246.41 272.10 C 246.07 268.79 246.98 264.95 244.39 262.35 C 241.92 262.47 239.62 263.35 237.85 265.09 C 237.47 265.15 236.70 265.28 236.32 265.35 C 237.02 263.21 237.68 261.06 238.24 258.90 C 238.00 258.32 237.52 257.16 237.28 256.58 C 234.34 255.17 231.31 256.32 228.39 257.04 C 228.83 254.74 229.99 252.24 229.03 249.96 C 226.13 247.06 222.36 250.62 219.11 250.96 C 219.22 249.02 220.25 247.43 221.39 245.95 C 220.77 244.79 220.15 243.64 219.53 242.50 C 216.73 242.10 214.31 243.25 212.15 244.90 C 211.94 243.92 211.75 242.95 211.57 241.97 C 212.08 241.66 213.09 241.02 213.60 240.70 C 213.51 239.67 213.42 238.64 213.34 237.62 C 211.08 237.03 208.78 236.71 206.46 236.58 Z" />
<path fill="#ffffff" opacity="1.00" d=" M 306.51 230.43 C 309.64 230.45 314.28 228.81 315.94 232.43 C 312.83 234.19 309.60 235.74 306.25 236.97 C 306.20 234.78 306.23 232.60 306.51 230.43 Z" />
<path fill="#ffffff" opacity="1.00" d=" M 315.41 241.60 C 318.63 238.99 321.58 235.60 325.79 234.69 C 325.69 235.36 325.47 236.71 325.37 237.39 C 321.44 240.31 317.94 243.81 313.77 246.39 C 313.61 244.63 313.84 242.67 315.41 241.60 Z" />
<path fill="#ffffff" opacity="1.00" d=" M 336.79 244.46 C 339.64 242.90 341.46 245.83 343.24 247.51 C 344.98 248.74 348.57 249.54 347.21 252.42 C 339.93 265.59 332.38 278.62 325.25 291.87 C 322.72 290.11 323.29 286.74 323.06 284.08 C 322.84 275.57 321.64 267.05 322.37 258.55 C 327.22 253.91 331.56 248.70 336.79 244.46 Z" />
<path fill="#ffffff" opacity="1.00" d=" M 302.74 252.52 C 302.97 249.60 303.84 246.72 305.70 244.42 C 306.30 244.50 307.48 244.66 308.07 244.74 C 309.98 248.17 310.71 252.18 310.77 256.07 C 310.00 260.28 306.63 263.30 304.96 267.12 C 303.77 268.98 303.51 271.73 301.15 272.52 C 301.07 265.82 302.07 259.17 302.74 252.52 Z" />
<path fill="#ffffff" opacity="1.00" d=" M 156.63 249.77 C 157.45 249.76 158.28 249.75 159.12 249.75 C 160.77 251.83 162.15 254.12 163.93 256.10 C 165.89 258.25 168.70 259.25 170.97 260.99 C 173.13 263.39 174.92 266.85 173.39 270.06 C 172.43 273.46 170.01 277.47 172.38 280.80 C 173.26 282.26 174.43 284.19 173.19 285.83 C 169.63 287.09 165.20 287.50 162.25 284.69 C 156.21 279.65 151.89 272.04 152.40 263.97 C 152.87 259.06 152.79 253.44 156.63 249.77 Z" />
<path fill="#ffffff" opacity="1.00" d=" M 175.36 261.44 C 177.34 261.09 179.32 260.71 181.30 260.33 C 181.08 261.68 181.07 263.16 180.27 264.33 C 178.66 264.96 177.01 264.34 175.48 263.82 C 175.45 263.23 175.39 262.03 175.36 261.44 Z" />
<path fill="#ffffff" opacity="1.00" d=" M 314.71 262.49 C 315.74 262.48 316.77 262.48 317.80 262.47 C 317.81 264.26 318.27 266.37 316.79 267.75 C 314.44 270.29 311.77 272.53 309.38 275.04 C 309.15 274.87 308.69 274.52 308.46 274.35 C 308.39 275.47 307.98 276.41 307.21 277.17 C 305.28 278.78 303.71 281.05 301.23 281.85 C 301.01 279.78 301.64 277.74 303.05 276.20 C 306.85 271.56 310.30 266.60 314.71 262.49 Z" />
<path fill="#ffffff" opacity="1.00" d=" M 189.15 267.01 C 194.20 264.31 200.57 263.28 205.83 266.02 C 210.70 268.23 213.48 273.64 213.33 278.86 C 212.67 284.06 208.98 288.36 208.35 293.52 C 210.44 293.63 212.54 293.65 214.64 293.60 C 215.43 294.98 216.13 296.55 214.81 297.90 C 208.80 305.99 198.35 309.21 188.63 309.24 C 189.38 304.63 192.46 300.61 193.71 296.06 C 195.93 295.32 198.28 295.56 200.58 295.36 C 200.29 293.98 199.95 292.33 198.51 291.70 C 193.56 289.44 188.26 288.00 183.42 285.48 C 179.69 283.57 178.87 278.50 180.45 274.91 C 181.85 271.00 185.70 268.88 189.15 267.01 Z" />
<path fill="#ffffff" opacity="1.00" d=" M 143.32 269.08 C 143.81 269.14 144.78 269.26 145.27 269.31 C 148.84 276.20 152.24 283.80 158.90 288.26 C 160.73 289.82 163.27 291.20 163.68 293.78 C 164.39 296.48 162.88 299.01 162.08 301.49 C 157.71 303.70 153.87 299.57 150.46 297.34 C 143.27 289.99 141.37 278.89 143.32 269.08 Z" />
<path fill="#ffffff" opacity="1.00" d=" M 302.91 294.85 C 307.95 289.42 312.53 283.14 319.27 279.70 C 319.37 281.95 320.41 284.79 318.52 286.60 C 313.25 291.99 307.68 297.08 302.41 302.46 C 301.86 302.49 300.77 302.55 300.23 302.57 C 300.22 299.76 300.44 296.65 302.91 294.85 Z" />
<path fill="#ffffff" opacity="1.00" d=" M 371.32 296.47 C 376.94 292.03 383.40 288.69 390.21 286.57 C 393.24 288.60 394.20 292.59 394.99 295.97 C 394.18 296.78 393.39 297.60 392.59 298.42 C 385.47 298.44 378.35 299.26 371.24 298.54 C 371.26 298.03 371.30 296.99 371.32 296.47 Z" />
<path fill="#ffffff" opacity="1.00" d=" M 178.59 312.25 C 183.40 308.04 182.74 300.53 186.92 295.80 C 188.16 298.47 186.27 301.00 185.50 303.49 C 183.04 310.28 180.08 316.89 178.05 323.82 C 177.30 326.48 174.17 327.85 172.09 325.66 C 166.27 320.28 160.68 314.63 155.05 309.04 C 154.03 308.11 153.24 306.96 152.70 305.69 C 155.55 306.64 157.39 309.15 159.63 311.00 C 164.39 315.04 168.53 319.72 173.14 323.92 C 176.39 323.90 176.72 320.49 177.71 318.13 C 178.43 316.24 179.38 314.27 178.59 312.25 Z" />
<path fill="#ffffff" opacity="1.00" d=" M 218.54 300.63 C 219.10 300.58 220.21 300.47 220.77 300.42 C 220.68 300.95 220.51 302.01 220.43 302.54 C 219.62 303.62 218.83 304.71 218.10 305.84 C 210.85 312.78 200.84 315.81 191.09 316.93 C 188.99 316.92 185.79 317.61 185.62 314.59 C 194.99 315.41 203.60 310.93 211.49 306.47 C 214.25 305.05 216.32 302.72 218.54 300.63 Z" />
<path fill="#ffffff" opacity="1.00" d=" M 305.59 311.45 C 309.83 308.79 312.42 303.69 317.32 302.23 C 316.13 305.98 314.55 309.86 311.50 312.49 C 308.61 315.11 306.28 318.41 302.92 320.46 C 302.79 317.21 303.92 314.17 305.59 311.45 Z" />
<path fill="#ffffff" opacity="1.00" d=" M 217.16 312.35 C 220.29 310.42 222.81 306.34 226.99 307.15 C 235.21 313.90 242.65 321.57 250.84 328.36 C 251.06 335.58 250.99 342.80 251.00 350.02 C 251.08 355.39 247.15 360.26 242.24 362.11 C 236.01 364.49 229.87 367.15 223.58 369.37 C 220.79 370.43 217.14 370.38 215.19 367.81 C 205.55 356.47 195.54 345.41 186.51 333.56 C 184.27 330.70 183.23 327.13 182.55 323.62 C 182.84 323.08 183.40 322.01 183.69 321.47 C 195.46 322.47 207.27 318.58 217.16 312.35 M 185.75 326.73 C 185.59 327.26 185.28 328.33 185.12 328.86 C 185.45 329.30 186.11 330.18 186.44 330.62 C 190.81 332.18 195.49 332.55 200.04 331.69 C 199.87 331.45 199.54 330.98 199.37 330.75 C 200.75 330.68 202.13 330.58 203.51 330.44 C 203.44 329.26 203.58 328.05 203.21 326.92 C 197.84 324.05 191.22 324.26 185.75 326.73 Z" />
<path fill="#ffffff" opacity="1.00" d=" M 379.86 352.02 C 384.35 351.62 388.46 353.67 392.51 355.30 C 403.68 360.42 412.07 369.75 420.82 378.09 C 422.78 380.35 424.99 382.59 425.89 385.54 C 424.57 385.55 423.25 385.54 421.94 385.51 C 411.90 370.92 397.32 359.42 380.50 353.75 C 380.34 353.32 380.02 352.46 379.86 352.02 Z" />
<path fill="#ffffff" opacity="1.00" d=" M 373.05 362.65 C 375.24 361.34 377.94 360.27 380.41 361.55 C 394.16 367.25 406.22 376.73 415.39 388.42 C 415.64 388.97 416.14 390.08 416.39 390.64 C 415.52 390.70 413.77 390.81 412.89 390.87 C 397.66 385.76 382.02 381.70 367.23 375.35 C 367.53 370.58 370.12 366.29 373.05 362.65 Z" />
<path fill="#ffffff" opacity="1.00" d=" M 301.04 376.45 C 302.31 374.24 304.62 374.07 306.88 374.86 C 305.67 377.13 303.17 376.91 301.04 376.45 Z" />
<path fill="#ffffff" opacity="1.00" d=" M 328.23 377.55 C 327.64 375.53 328.45 373.97 330.60 373.72 C 330.74 374.63 331.01 376.47 331.15 377.39 C 330.17 377.44 329.20 377.49 328.23 377.55 Z" />
<path fill="#ffffff" opacity="1.00" d=" M 328.41 409.70 C 329.79 409.36 332.00 408.93 332.10 411.01 C 332.23 414.56 324.83 411.79 328.41 409.70 Z" />
<path fill="#ffffff" opacity="1.00" d=" M 303.79 411.66 C 304.22 409.86 306.27 410.57 307.61 410.36 C 307.61 412.21 307.29 414.04 306.49 415.73 C 305.14 414.72 302.68 413.74 303.79 411.66 Z" />
<path fill="#ffffff" opacity="1.00" d=" M 308.37 459.11 C 310.23 459.97 311.51 461.68 312.97 463.07 C 319.29 469.50 326.39 475.15 332.46 481.81 C 333.32 484.12 334.46 486.58 333.67 489.10 C 326.35 518.02 319.44 547.05 312.09 575.96 C 311.42 577.62 311.79 579.35 312.49 580.92 C 316.57 572.57 320.30 564.06 324.44 555.74 C 324.36 574.49 323.68 593.30 321.70 611.96 C 321.40 613.69 319.75 614.76 318.23 615.36 C 314.60 616.71 310.69 617.06 306.85 617.24 C 294.78 616.83 282.72 616.28 270.65 615.73 C 268.69 607.00 267.08 598.04 267.89 589.06 C 268.12 579.44 268.48 569.82 268.72 560.20 C 267.11 557.80 265.65 555.31 264.27 552.78 L 265.93 552.59 C 265.44 552.57 264.45 552.55 263.96 552.53 C 262.99 549.78 262.55 546.90 262.43 544.00 C 261.73 527.82 260.66 511.62 261.59 495.43 C 273.45 493.93 285.58 493.23 297.01 489.51 C 300.16 488.04 304.48 487.05 305.44 483.20 C 306.51 480.55 305.53 477.77 305.36 475.07 C 305.41 471.10 306.16 467.18 306.40 463.23 C 306.97 463.02 308.10 462.62 308.66 462.42 C 308.16 461.36 306.51 460.15 308.37 459.11 Z" />
<path fill="#ffffff" opacity="1.00" d=" M 386.42 483.70 C 401.66 482.15 416.96 481.10 432.22 479.74 C 435.19 479.14 437.43 481.48 438.21 484.13 C 451.71 516.70 465.06 549.34 478.47 581.96 C 481.05 587.91 483.14 594.07 486.04 599.89 C 486.79 601.30 486.43 602.96 486.53 604.50 C 472.90 606.73 459.24 608.82 445.56 610.71 C 440.73 601.79 435.14 593.25 431.06 583.94 C 429.48 580.45 429.00 576.48 426.66 573.37 C 424.82 570.25 421.44 568.29 420.14 564.84 C 409.05 539.63 397.90 514.45 386.73 489.27 C 385.86 487.53 386.35 485.55 386.42 483.70 Z" />
<path fill="#ffffff" opacity="1.00" d=" M 344.07 482.78 C 343.91 482.49 343.61 481.91 343.45 481.62 C 354.89 483.35 366.57 482.91 378.10 483.39 C 379.59 483.60 381.02 484.10 382.46 484.53 C 390.34 503.30 398.12 522.11 405.97 540.89 C 406.45 541.91 406.83 543.02 406.68 544.18 C 411.12 551.20 413.16 559.71 417.06 567.13 C 422.02 575.46 428.01 583.17 432.11 592.00 C 434.80 597.87 438.81 603.28 440.80 609.37 C 429.70 610.88 418.17 608.29 408.76 602.21 C 406.20 600.95 405.39 598.00 404.05 595.71 C 400.81 589.07 397.14 582.64 394.02 575.94 C 399.54 581.41 404.57 587.38 410.09 592.83 C 410.79 592.93 412.19 593.13 412.90 593.23 C 408.17 585.73 403.66 578.05 397.95 571.23 C 393.17 564.60 384.89 561.64 380.37 554.78 C 365.59 532.33 351.10 509.09 343.56 483.07 C 343.25 483.06 342.62 483.03 342.31 483.01 C 342.75 482.95 343.63 482.84 344.07 482.78 Z" />
<path fill="#ffffff" opacity="1.00" d=" M 251.77 495.52 C 253.39 495.34 256.35 494.60 256.44 497.06 C 257.28 511.74 257.59 526.45 258.19 541.14 C 258.81 547.43 259.16 553.99 261.96 559.78 C 266.33 571.75 263.98 584.61 264.32 597.03 C 264.49 602.78 264.17 608.52 263.93 614.26 C 263.04 614.30 261.28 614.38 260.40 614.41 C 258.57 605.71 257.39 596.88 256.42 588.04 C 255.92 574.32 253.96 560.70 253.14 546.99 C 252.02 529.87 250.07 512.66 251.77 495.52 Z" />
<path fill="#ffffff" opacity="1.00" d=" M 458.01 616.12 C 468.41 614.54 478.99 613.39 488.98 609.99 C 490.58 609.94 492.17 610.27 493.76 610.48 C 494.29 612.53 494.68 614.60 495.00 616.70 C 492.55 617.05 489.75 618.87 487.41 617.45 C 487.28 619.10 485.20 619.00 484.01 619.47 C 471.36 623.07 458.10 623.92 445.01 623.51 C 436.04 622.84 426.82 621.67 418.78 617.35 C 418.43 616.91 417.73 616.05 417.38 615.61 C 417.41 615.03 417.47 613.85 417.50 613.27 C 421.30 614.49 424.91 616.43 428.93 616.88 C 438.59 618.06 448.38 617.32 458.01 616.12 Z" />
<path fill="#ffffff" opacity="1.00" d=" M 257.82 621.63 C 276.22 621.93 294.70 624.39 313.12 622.86 C 317.47 621.74 322.62 621.40 326.34 624.37 C 326.43 625.33 326.49 626.29 326.52 627.27 C 305.18 630.48 283.38 630.56 261.96 628.02 C 258.90 628.38 255.02 624.14 257.82 621.63 Z" />
<path fill="#ffffff" opacity="1.00" d=" M 469.94 630.82 C 475.29 630.16 480.69 629.63 485.92 628.23 C 487.84 627.48 489.79 628.63 490.90 630.17 C 494.13 634.23 497.91 637.81 501.37 641.68 C 502.64 642.82 502.49 644.59 502.71 646.15 C 502.04 646.49 500.70 647.17 500.02 647.51 C 494.93 646.60 490.06 644.61 484.92 644.01 C 478.86 644.71 476.30 650.64 472.58 654.55 C 469.37 658.10 464.73 654.66 460.89 654.64 C 457.27 654.60 454.28 652.65 451.69 650.33 C 450.70 648.54 449.83 646.50 447.96 645.46 C 444.72 643.80 440.42 645.12 437.72 642.29 C 434.61 639.04 433.41 634.52 431.68 630.49 C 444.30 632.87 457.24 632.14 469.94 630.82 Z" />
<path fill="#ffffff" opacity="1.00" d=" M 234.98 638.90 C 240.99 633.70 249.29 631.86 257.08 632.45 C 269.37 633.31 281.66 634.17 293.95 634.96 C 302.09 634.57 310.24 634.72 318.38 634.38 C 319.17 634.05 319.92 633.65 320.64 633.19 L 320.00 634.98 L 322.18 634.59 C 317.75 636.11 316.88 641.22 316.32 645.29 C 311.22 647.74 305.58 649.02 299.94 649.33 C 293.71 649.79 287.98 646.88 281.97 645.79 C 275.36 644.49 268.78 642.31 261.96 642.83 C 255.37 643.01 248.58 644.19 242.84 647.60 C 239.41 649.52 235.59 651.64 231.52 650.69 C 230.68 646.53 231.64 641.74 234.98 638.90 Z" />
</g>
<g id="#020202ff">
<path fill="#020202" opacity="1.00" d=" M 353.85 28.15 C 357.48 28.01 361.93 27.36 364.59 30.44 C 366.84 32.85 367.61 36.21 368.95 39.13 C 369.54 41.26 370.73 43.13 371.58 45.15 C 372.48 48.93 373.05 53.04 375.46 56.22 C 376.29 60.06 376.49 64.50 379.34 67.48 C 383.00 68.23 386.81 68.05 390.45 68.91 C 399.71 71.90 409.09 74.48 418.31 77.56 C 420.81 79.43 423.32 81.74 423.91 84.96 C 424.18 89.01 424.30 93.39 422.26 97.03 C 416.35 103.86 408.67 108.88 402.56 115.50 C 400.38 120.74 400.66 126.70 398.52 131.98 C 399.99 133.31 401.71 134.42 402.99 135.96 C 404.27 138.29 405.18 140.81 406.42 143.17 C 406.31 146.15 407.22 149.47 405.55 152.16 C 403.58 155.57 400.97 158.69 397.60 160.80 C 395.08 162.35 393.39 165.06 392.85 167.94 C 391.19 176.65 388.68 185.20 385.48 193.46 C 384.39 196.45 382.47 199.02 380.26 201.26 C 387.39 202.67 394.35 204.80 401.43 206.42 C 405.10 207.67 409.33 208.05 412.20 210.95 C 415.92 214.54 421.22 215.13 425.77 217.18 C 429.94 218.53 433.95 220.32 438.09 221.81 C 439.02 222.24 439.94 222.72 440.84 223.26 C 441.39 223.37 442.50 223.60 443.05 223.72 C 445.96 225.44 448.79 227.30 451.70 229.04 C 451.68 229.32 451.64 229.87 451.62 230.15 C 453.07 231.97 453.43 234.42 455.08 236.12 C 465.94 253.59 477.29 270.68 487.49 288.55 C 495.02 302.05 503.08 315.27 509.87 329.17 C 512.24 332.84 512.56 337.47 511.61 341.62 C 507.40 345.41 503.72 349.80 499.07 353.08 C 495.54 356.19 490.83 357.89 487.87 361.61 C 486.43 362.31 484.72 362.81 484.09 364.47 C 477.56 368.33 471.68 373.22 465.18 377.14 C 457.47 382.39 449.44 387.31 440.80 390.86 C 438.44 392.13 436.11 390.89 434.07 389.67 C 432.28 391.59 429.91 392.93 428.25 394.95 C 428.15 399.42 426.39 403.62 426.06 408.04 C 425.92 411.80 430.00 413.80 430.46 417.39 C 430.68 417.40 431.11 417.44 431.32 417.46 C 431.76 420.54 433.57 423.15 435.01 425.83 C 435.48 427.57 436.33 429.15 437.28 430.67 C 438.52 433.38 439.76 436.10 441.21 438.72 C 445.20 448.00 449.74 457.06 454.35 466.05 C 454.99 467.95 454.79 470.13 453.97 471.96 C 452.26 473.37 450.12 474.06 448.12 474.93 C 447.73 475.45 446.95 476.47 446.56 476.98 C 447.54 480.61 449.73 483.73 451.08 487.22 C 453.11 491.85 454.88 496.60 457.16 501.11 C 457.24 501.69 457.41 502.85 457.50 503.43 C 460.53 508.40 461.50 514.30 464.38 519.33 L 465.27 519.72 C 465.07 520.43 465.11 521.14 465.39 521.86 C 471.93 537.53 478.11 553.36 484.47 569.11 C 487.72 578.90 491.83 588.45 493.96 598.58 C 495.16 599.80 496.47 600.95 497.52 602.33 C 498.51 604.83 498.86 607.51 499.73 610.05 C 500.66 613.55 504.17 616.40 502.65 620.32 C 500.23 621.41 497.62 622.04 495.25 623.24 C 495.04 625.22 497.28 626.25 498.39 627.57 C 503.17 631.54 506.90 636.53 510.89 641.25 C 513.33 645.11 515.67 649.40 515.83 654.05 C 515.13 658.55 512.92 663.37 508.42 665.21 C 496.09 668.86 482.96 672.26 470.11 669.26 C 463.88 667.61 457.19 667.60 451.28 664.89 C 444.59 660.75 439.39 654.66 434.47 648.64 C 432.36 646.40 429.19 645.40 427.46 642.78 C 424.27 638.82 423.07 633.72 422.26 628.82 C 422.62 628.74 423.33 628.58 423.69 628.50 C 419.37 627.03 414.90 625.63 411.32 622.68 C 406.97 619.68 405.05 614.55 402.66 610.07 C 395.45 596.72 388.44 583.25 380.70 570.20 C 376.15 564.19 370.76 558.77 366.92 552.24 C 359.16 536.49 350.65 521.12 342.92 505.37 C 341.93 503.23 340.88 501.13 339.72 499.09 C 338.48 504.04 337.56 509.06 336.74 514.10 C 335.73 523.37 336.11 532.80 334.21 541.96 C 332.70 547.51 333.07 553.33 332.47 559.01 C 331.75 577.72 329.59 596.40 329.77 615.16 C 332.98 616.34 333.32 620.00 333.28 622.96 C 333.01 626.35 335.32 629.35 334.69 632.77 C 333.64 633.33 332.67 634.04 331.66 634.69 C 332.39 639.46 333.18 644.28 332.96 649.12 C 332.80 653.02 327.67 652.59 324.99 653.87 C 314.61 654.33 304.45 657.38 294.03 657.80 C 287.67 657.95 281.41 659.47 275.04 659.26 C 267.68 659.11 260.37 660.38 253.02 660.29 C 242.66 660.27 232.31 660.88 221.98 661.43 C 218.22 660.10 213.66 661.45 210.51 658.62 C 207.88 656.61 207.19 652.62 209.03 649.87 C 211.25 646.55 214.30 643.90 217.24 641.23 C 219.67 639.43 222.12 637.61 224.88 636.32 C 233.62 632.64 241.61 627.40 250.42 623.85 C 252.76 616.79 251.46 609.31 251.50 602.04 C 251.51 588.54 249.14 575.23 247.77 561.85 C 245.50 540.29 242.77 518.70 242.89 496.99 C 240.33 496.33 237.81 495.48 235.39 494.42 C 239.09 461.61 243.76 428.91 246.88 396.03 C 246.63 387.34 249.66 378.60 247.84 369.99 C 238.34 373.65 229.05 378.09 218.96 379.87 C 217.31 379.31 215.67 378.77 214.01 378.27 C 210.08 374.56 206.68 370.34 203.07 366.33 C 194.80 356.00 185.39 346.38 179.18 334.58 C 178.72 333.80 177.66 333.97 176.92 333.67 C 174.45 336.30 170.72 335.18 168.42 332.93 C 160.84 326.05 153.12 319.33 145.48 312.53 C 142.10 308.13 143.44 302.15 143.23 297.03 C 141.81 293.71 138.62 291.49 137.60 287.96 C 135.04 280.16 135.87 271.67 137.64 263.79 C 139.70 262.13 141.72 260.16 144.54 260.02 C 144.80 257.01 144.94 253.93 145.98 251.06 C 146.47 249.14 147.75 247.14 146.70 245.18 C 144.99 242.33 142.83 239.79 141.01 237.01 C 139.39 239.10 137.91 241.32 136.89 243.78 C 134.70 248.73 131.72 253.27 128.67 257.73 C 124.10 264.61 118.32 270.89 111.22 275.22 C 104.87 279.27 96.53 278.22 90.10 274.90 C 87.20 272.84 84.91 270.06 82.12 267.86 C 80.52 266.47 78.60 265.13 77.89 263.04 C 77.24 257.32 78.26 251.56 79.78 246.06 C 83.20 233.39 87.10 220.74 92.99 208.97 C 98.77 199.32 105.71 190.41 111.64 180.86 C 111.86 178.35 107.50 177.81 107.15 175.15 C 104.96 169.78 108.04 164.81 110.33 160.13 C 108.75 160.56 106.41 159.97 105.86 162.04 C 103.19 167.29 98.84 171.36 94.61 175.33 C 95.52 178.35 95.31 181.80 93.20 184.31 C 91.67 187.37 87.35 189.09 87.89 192.99 C 88.97 197.66 89.37 202.84 87.01 207.20 C 85.06 210.95 81.31 214.01 76.95 214.14 C 70.14 214.56 64.35 209.68 60.46 204.58 C 56.58 197.85 53.59 189.31 57.38 181.86 C 61.32 173.83 66.48 166.45 70.88 158.66 C 76.15 152.00 75.83 143.16 75.27 135.15 C 75.04 133.44 75.21 131.34 73.54 130.30 C 67.30 125.12 60.46 120.71 54.00 115.83 C 38.51 103.64 22.99 91.49 7.47 79.33 C 2.12 74.36 4.33 64.43 10.80 61.50 C 12.95 60.07 15.56 59.83 18.03 59.31 C 19.70 57.82 21.09 56.05 22.61 54.41 C 26.13 52.86 31.50 52.91 33.09 57.11 C 34.51 61.72 31.32 66.18 31.70 70.88 C 65.79 95.64 99.59 120.79 133.60 145.68 C 160.43 165.74 187.70 185.23 214.37 205.50 C 219.42 210.90 214.71 218.98 217.52 225.29 C 226.40 231.97 235.50 238.42 243.91 245.70 C 244.49 245.33 245.65 244.60 246.23 244.23 C 250.10 237.36 255.91 231.92 260.72 225.73 C 263.73 222.61 265.75 218.60 269.15 215.87 C 272.16 214.25 275.85 215.03 278.83 213.25 C 270.74 205.13 264.29 195.24 260.30 184.50 C 258.18 175.69 256.37 166.77 254.77 157.84 C 254.74 155.84 252.74 154.69 251.26 153.71 C 240.38 149.40 229.98 142.87 222.92 133.39 C 220.25 128.74 216.99 123.61 217.99 118.01 C 218.42 114.34 222.39 113.02 224.94 111.00 C 232.04 106.55 239.30 101.27 248.00 100.92 C 249.46 93.72 249.82 86.33 249.07 79.02 C 249.46 72.25 246.82 65.69 247.86 58.91 C 247.76 56.00 249.95 53.61 252.29 52.19 C 258.59 49.27 265.31 47.42 271.79 44.97 C 283.35 41.89 294.85 37.89 306.95 37.69 C 313.05 36.99 319.25 36.47 325.14 34.61 C 334.52 31.69 344.13 29.54 353.85 28.15 M 332.08 39.46 C 316.87 46.15 301.55 52.61 286.54 59.75 C 284.45 60.75 282.41 62.15 279.99 62.15 C 274.86 62.36 269.94 63.96 264.90 64.81 C 263.21 64.97 261.79 63.81 260.30 63.23 C 260.47 60.35 262.83 58.43 265.10 57.03 C 269.68 54.51 274.70 52.45 280.02 52.55 C 281.26 53.38 282.55 54.15 283.86 54.89 C 290.22 51.82 297.02 49.53 302.92 45.56 C 301.48 45.50 300.01 45.31 298.60 45.69 C 287.80 48.41 276.49 49.07 265.99 52.98 C 261.91 54.48 257.67 56.21 254.72 59.52 C 252.80 63.19 254.13 67.27 255.05 70.99 C 255.48 79.36 255.95 87.73 256.36 96.10 C 256.68 96.43 257.32 97.08 257.64 97.41 C 261.97 97.68 266.30 98.03 270.58 98.79 C 278.41 100.10 286.39 98.87 294.02 97.00 C 318.21 90.83 341.27 80.99 363.89 70.58 C 366.58 69.55 369.65 67.19 368.86 63.93 C 366.77 56.21 364.24 48.61 362.04 40.92 C 361.36 37.21 357.24 35.91 353.94 35.82 C 346.51 35.50 339.08 37.05 332.08 39.46 M 21.34 61.71 C 20.92 65.22 24.61 67.49 27.78 66.88 C 27.97 64.62 27.71 62.36 27.11 60.18 C 25.10 60.34 23.17 60.87 21.34 61.71 M 11.38 67.44 C 10.48 70.76 10.83 75.04 14.22 76.80 C 16.85 78.98 20.34 78.74 23.37 77.69 C 26.06 78.87 25.97 81.90 26.48 84.37 C 26.91 84.57 27.78 84.97 28.21 85.17 C 29.66 84.91 31.17 84.86 32.49 85.62 C 32.31 86.87 32.17 88.14 32.02 89.40 C 32.73 89.62 34.15 90.06 34.86 90.28 C 36.24 90.29 38.39 88.71 39.36 90.31 C 39.66 92.00 39.60 93.71 39.61 95.42 C 42.11 98.20 45.86 93.71 47.84 96.98 C 48.16 99.63 47.90 102.73 50.93 103.88 C 52.09 103.10 53.25 102.33 54.42 101.56 C 55.18 102.35 55.93 103.15 56.68 103.96 C 56.69 105.34 56.71 106.71 56.73 108.09 C 58.32 109.24 59.89 110.58 61.96 110.66 C 66.35 110.69 66.23 116.67 70.07 117.70 C 71.91 117.78 73.75 117.55 75.59 117.45 C 76.30 119.30 76.94 121.18 77.53 123.08 C 79.56 122.79 81.59 122.42 83.63 122.16 C 83.97 124.18 83.39 126.56 84.78 128.26 C 86.94 128.88 89.26 128.75 91.40 129.47 C 92.99 131.33 93.03 134.12 94.59 136.08 C 96.32 134.97 98.26 134.40 100.31 134.56 C 102.05 136.79 100.25 139.11 99.84 141.44 C 102.50 142.20 104.92 141.01 107.37 140.15 C 107.58 142.37 107.77 144.58 107.98 146.80 C 110.83 147.32 112.91 144.81 115.76 145.35 C 115.97 147.06 115.82 148.76 115.32 150.41 C 116.38 151.63 117.71 152.53 119.24 153.04 C 120.41 152.34 121.33 150.78 122.88 150.95 C 126.28 152.70 124.40 158.29 128.10 159.80 C 130.77 160.20 133.49 159.37 136.18 159.89 C 136.79 161.98 135.67 164.86 137.73 166.26 C 140.47 165.80 144.20 163.96 145.38 167.66 C 145.12 168.49 144.61 170.15 144.35 170.99 C 144.75 171.55 145.56 172.69 145.96 173.25 C 148.09 172.74 150.19 172.07 152.34 171.64 C 153.57 173.69 152.41 176.30 153.64 178.47 C 155.63 179.08 157.41 178.23 159.11 177.23 C 162.26 178.54 158.65 182.81 161.66 184.56 C 163.14 183.87 164.63 183.21 166.15 182.60 C 166.63 182.96 167.58 183.69 168.06 184.05 C 168.15 185.96 168.25 187.87 168.40 189.78 C 170.72 188.95 173.02 187.67 175.58 188.19 C 175.34 189.61 175.08 191.03 174.73 192.43 C 175.68 193.67 176.32 195.44 178.08 195.76 C 178.33 193.09 180.62 193.26 182.69 193.35 C 182.67 195.69 181.17 198.37 182.80 200.46 C 184.75 200.19 186.69 198.00 188.53 199.55 C 189.27 201.43 189.18 203.52 189.51 205.50 C 191.55 205.57 193.59 205.52 195.64 205.49 C 195.86 207.11 196.05 208.73 196.24 210.35 C 197.99 210.13 199.73 209.88 201.48 209.66 C 201.82 211.38 202.16 213.11 202.50 214.85 C 203.80 214.76 205.11 214.67 206.41 214.58 C 206.77 215.64 207.13 216.71 207.49 217.78 C 208.05 217.81 209.15 217.87 209.71 217.89 C 209.89 215.48 209.74 213.06 209.35 210.68 C 208.06 208.98 206.67 207.32 205.00 205.99 C 191.81 196.18 178.61 186.38 165.46 176.52 C 116.68 139.83 66.83 104.60 17.64 68.48 C 15.97 66.73 13.52 67.23 11.38 67.44 M 382.80 76.63 C 380.83 78.49 382.23 81.92 380.06 83.86 C 376.67 86.52 373.82 89.79 370.60 92.66 C 362.82 100.45 354.14 107.32 344.56 112.78 C 330.49 120.65 315.62 127.29 300.01 131.42 C 294.20 132.74 288.04 134.31 282.13 132.72 C 272.12 129.33 263.01 123.86 253.88 118.65 C 250.61 116.63 249.14 112.85 247.96 109.39 C 239.97 108.84 232.58 112.64 226.58 117.57 C 225.15 118.98 224.69 121.14 224.43 123.06 C 226.09 126.17 227.98 129.16 229.98 132.06 C 233.61 136.25 238.47 139.13 243.23 141.85 C 249.15 145.12 255.41 147.78 261.89 149.72 C 277.27 155.32 294.36 155.22 310.11 151.17 C 321.97 148.06 332.36 141.35 342.63 134.90 C 351.25 129.23 359.51 123.03 367.74 116.82 C 378.27 108.35 389.47 100.74 400.94 93.60 C 404.20 91.55 407.41 89.35 410.93 87.76 C 413.74 86.70 413.74 89.85 414.50 91.64 C 415.47 91.49 416.44 91.34 417.42 91.20 C 418.16 88.95 417.97 86.61 417.50 84.33 C 415.52 83.12 413.50 81.85 411.19 81.42 C 401.63 80.39 392.60 75.65 382.80 76.63 M 384.23 121.12 C 385.90 123.05 387.70 124.87 389.48 126.69 C 390.43 124.70 389.83 122.44 389.87 120.32 C 388.93 120.21 387.05 119.99 386.11 119.89 C 386.14 119.52 386.22 118.78 386.26 118.42 C 385.62 119.35 384.83 120.17 384.23 121.12 M 368.39 123.65 C 368.35 123.90 368.27 124.40 368.23 124.65 C 372.86 126.76 377.49 129.03 381.19 132.62 C 380.59 133.15 379.95 133.59 379.26 133.97 C 374.69 131.34 369.83 129.17 364.89 127.39 C 361.92 127.51 359.61 129.80 357.39 131.53 C 351.13 136.32 344.82 141.05 338.49 145.74 C 338.51 148.99 338.62 152.30 337.44 155.39 C 335.37 155.43 332.88 156.26 331.27 154.50 C 329.70 153.30 328.10 151.11 325.84 152.19 C 319.35 155.49 312.58 158.31 305.53 160.16 C 304.85 163.40 303.54 166.84 304.90 170.10 C 305.88 173.70 309.18 175.71 312.18 177.48 C 311.45 179.79 309.50 181.84 306.85 181.26 C 302.58 179.13 299.11 175.62 296.03 172.06 C 295.13 168.47 298.63 165.29 297.65 161.51 C 293.87 160.46 290.21 162.64 286.38 162.33 C 286.07 165.03 286.60 169.59 282.90 169.96 C 278.08 169.13 276.89 163.82 273.93 160.75 C 270.58 160.23 267.26 159.42 263.90 158.99 C 262.56 161.52 264.43 164.31 264.73 166.90 C 266.47 182.29 274.70 196.02 284.03 208.04 C 290.93 215.37 300.38 219.46 309.42 223.50 C 318.31 227.70 328.39 228.74 338.09 227.70 C 349.15 226.33 359.40 220.09 366.08 211.22 C 369.78 207.85 372.93 203.91 375.13 199.39 C 375.60 199.42 376.52 199.49 376.99 199.53 C 376.58 199.42 375.78 199.20 375.38 199.09 C 379.95 190.34 382.85 180.80 384.73 171.14 C 385.53 167.24 385.48 162.95 387.60 159.45 C 391.51 157.20 396.39 155.95 398.84 151.79 C 401.56 147.08 400.01 141.16 396.92 137.06 C 393.76 134.47 390.07 132.53 386.29 131.02 C 385.99 129.23 387.52 126.63 385.47 125.60 C 380.64 121.85 373.99 121.83 368.39 123.65 M 116.27 175.60 C 117.91 176.33 119.82 174.99 121.01 173.90 C 123.19 170.73 121.68 166.74 120.13 163.64 C 113.78 162.56 112.31 172.29 116.27 175.60 M 127.24 170.45 C 127.07 174.10 131.69 176.52 134.83 174.84 C 132.47 173.09 129.92 171.64 127.24 170.45 M 137.38 188.48 C 127.30 197.39 118.69 208.14 113.21 220.49 C 105.85 233.97 100.36 248.69 98.90 264.05 C 98.54 266.93 99.61 269.66 100.92 272.16 C 102.81 272.56 104.80 272.65 106.52 271.61 C 113.48 267.70 118.31 261.14 123.14 254.98 C 129.20 246.47 134.59 237.51 139.80 228.47 C 143.01 223.08 144.49 216.93 146.40 211.02 C 146.65 209.64 147.64 207.88 146.12 206.91 C 142.57 203.69 138.37 201.27 134.60 198.31 C 134.96 196.79 135.36 195.27 135.81 193.77 C 141.03 196.92 145.68 200.87 150.68 204.35 C 153.30 206.38 156.52 207.94 157.99 211.10 C 157.19 213.41 155.54 215.22 154.23 217.24 C 152.39 221.05 151.27 225.30 151.51 229.56 C 151.92 229.47 152.75 229.30 153.16 229.21 C 155.29 224.78 156.35 218.57 161.58 216.75 C 166.24 215.19 170.73 217.87 174.28 220.64 C 177.80 223.84 180.28 228.26 184.24 230.90 C 185.76 228.41 186.67 224.44 190.46 225.43 C 193.24 228.54 197.00 232.06 201.57 230.58 C 201.56 227.90 200.98 225.08 198.93 223.20 C 181.07 208.23 162.32 194.37 143.84 180.18 C 141.98 183.16 140.18 186.26 137.38 188.48 M 374.23 210.06 C 372.70 216.52 368.54 221.83 365.75 227.74 C 354.78 248.36 343.81 268.99 332.75 289.56 C 326.33 302.40 319.99 315.28 313.45 328.06 C 312.39 329.97 311.51 331.97 310.93 334.08 C 317.90 326.94 324.37 319.33 331.14 311.99 C 336.55 306.77 342.31 301.92 348.12 297.16 C 363.47 284.80 378.77 272.36 393.76 259.58 L 394.43 259.45 C 395.21 258.61 396.01 257.79 396.81 256.96 C 396.74 256.30 396.59 254.99 396.52 254.33 C 392.27 251.58 387.42 249.66 383.65 246.26 C 382.36 242.79 386.32 240.43 389.16 239.73 C 397.62 237.79 406.03 235.54 414.62 234.20 C 414.31 231.04 412.43 228.34 411.43 225.39 C 409.98 222.10 409.28 218.07 406.00 216.03 C 397.23 210.84 386.94 209.30 376.97 208.28 C 375.76 207.97 374.39 208.79 374.23 210.06 M 278.21 235.28 C 280.66 236.07 283.22 236.53 285.67 237.35 C 287.49 240.35 289.99 244.43 287.60 247.80 C 285.67 251.10 283.50 254.26 281.14 257.26 C 279.47 259.54 277.56 261.66 276.08 264.08 C 274.15 269.02 276.12 274.21 277.20 279.10 C 281.53 298.24 286.53 317.24 292.68 335.88 C 293.54 338.02 293.99 340.68 296.29 341.78 C 297.37 340.52 298.70 339.41 299.45 337.92 C 300.45 334.60 299.05 331.22 298.92 327.88 C 297.84 314.50 295.54 301.22 295.40 287.79 C 295.22 275.20 295.40 262.60 295.31 250.01 C 294.94 244.25 297.46 238.90 298.80 233.42 C 299.30 231.19 300.52 228.52 299.39 226.39 C 295.92 224.76 292.58 222.34 288.85 221.59 C 285.11 225.91 281.80 230.77 278.21 235.28 M 160.56 224.61 C 157.89 228.67 158.99 233.85 160.68 238.07 C 162.81 242.69 165.32 247.50 169.70 250.38 C 173.69 251.98 179.20 253.39 182.44 249.64 C 184.74 241.11 180.21 232.63 174.25 226.79 C 171.01 222.88 164.87 222.07 160.56 224.61 M 273.08 224.15 C 265.03 230.16 259.40 238.69 254.28 247.20 C 252.80 249.50 251.18 252.21 251.88 255.07 C 256.59 261.25 264.84 264.84 266.65 273.01 C 267.14 280.85 264.46 288.37 262.82 295.92 C 261.50 301.96 260.28 308.02 259.23 314.11 C 255.21 352.31 254.42 390.73 251.76 429.02 C 249.83 444.98 248.00 460.96 246.19 476.93 C 245.85 480.48 244.33 484.02 245.56 487.58 C 248.70 486.97 251.89 486.97 255.07 486.94 C 268.15 486.22 281.18 484.75 294.19 483.23 C 296.24 482.82 299.20 482.36 299.80 479.99 C 300.02 473.92 299.44 467.83 300.17 461.79 C 300.19 459.84 300.58 457.36 298.91 455.95 L 298.47 455.66 C 298.59 455.47 298.84 455.09 298.96 454.90 C 299.64 451.76 296.59 449.21 295.13 446.67 C 290.75 439.36 287.38 431.51 283.62 423.88 C 280.80 418.62 282.25 412.43 283.50 406.95 C 287.43 396.25 281.98 384.93 283.77 374.05 C 285.50 369.14 287.42 364.32 289.46 359.54 C 290.60 356.83 290.47 353.78 289.93 350.95 C 288.56 343.75 285.71 336.95 283.81 329.89 C 279.35 314.27 274.98 298.63 270.48 283.02 C 269.17 278.12 268.55 273.07 268.11 268.03 C 267.90 265.92 268.78 263.84 270.13 262.26 C 274.03 257.60 276.87 252.18 280.25 247.16 C 281.17 245.89 281.24 244.27 281.59 242.80 C 278.75 241.81 275.84 241.04 272.97 240.15 C 271.62 240.07 270.78 238.38 271.34 237.22 C 273.04 232.17 276.46 227.95 278.69 223.14 C 276.78 223.06 274.70 222.92 273.08 224.15 M 418.44 223.27 C 420.65 228.58 423.20 233.78 424.79 239.34 C 419.52 241.62 413.66 241.39 408.13 242.59 C 403.26 243.79 397.79 243.39 393.57 246.46 C 397.76 248.61 401.78 251.14 405.47 254.05 C 406.66 256.67 404.14 258.81 402.34 260.31 C 386.46 273.00 370.76 285.92 354.89 298.62 C 343.15 307.90 333.41 319.33 323.06 330.07 C 316.92 336.88 310.99 343.88 304.67 350.53 C 297.95 358.20 293.18 367.38 290.19 377.10 C 288.78 381.97 289.41 387.10 290.07 392.03 C 290.48 395.31 292.44 398.54 291.31 401.88 C 290.11 407.66 286.30 413.47 288.74 419.46 C 290.82 424.24 293.10 428.94 295.58 433.53 C 303.84 446.20 314.69 456.88 325.33 467.53 C 327.10 469.05 328.58 471.12 330.91 471.85 C 341.10 475.48 352.05 475.36 362.62 477.09 C 376.08 478.57 389.65 477.45 403.10 476.43 C 416.11 474.89 428.68 470.84 441.01 466.53 C 442.03 465.98 443.87 465.60 443.57 464.05 C 443.58 460.48 441.95 457.16 440.58 453.94 C 435.80 442.33 429.16 431.63 423.08 420.68 C 422.55 420.56 421.49 420.33 420.95 420.21 C 417.50 427.37 414.49 434.73 410.21 441.45 C 409.35 442.71 408.46 443.95 407.53 445.15 C 407.51 440.83 408.66 436.55 410.75 432.78 C 414.51 424.57 416.27 415.65 418.48 406.94 C 418.98 405.50 418.69 404.02 418.46 402.57 C 402.07 395.87 385.39 389.84 369.09 382.89 C 363.95 380.90 359.37 377.30 353.90 376.35 C 352.04 380.36 350.06 384.31 348.11 388.28 C 347.63 389.44 346.54 390.09 345.59 390.82 C 344.07 383.96 346.09 376.86 348.53 370.45 C 351.91 370.10 355.40 372.65 358.56 371.35 C 361.36 366.60 364.72 362.22 368.34 358.07 C 368.10 356.75 367.64 355.50 367.45 354.18 C 369.97 350.52 373.43 347.67 376.73 344.74 C 387.15 337.44 398.12 330.95 408.73 323.92 C 410.35 322.79 412.10 321.84 413.93 321.04 C 410.72 313.73 410.77 305.64 409.73 297.87 C 409.27 294.23 409.64 290.37 411.37 287.08 C 415.63 278.46 420.85 270.36 425.69 262.06 C 425.71 262.75 425.74 264.12 425.76 264.81 C 423.40 268.95 422.20 273.61 420.44 278.01 C 415.01 290.07 417.69 303.73 420.52 316.10 C 421.65 315.82 422.81 315.54 423.82 314.90 C 430.03 311.36 436.30 307.93 442.55 304.45 C 443.84 303.64 445.35 303.38 446.84 303.14 C 446.74 303.70 446.54 304.82 446.44 305.39 C 439.76 311.17 432.77 316.60 425.25 321.25 C 417.45 326.49 409.50 331.48 401.53 336.45 C 395.82 340.42 389.31 343.20 384.02 347.78 C 392.50 351.19 401.47 353.62 409.41 358.30 C 420.54 364.71 431.17 372.81 438.08 383.83 C 458.69 372.24 477.62 357.91 495.62 342.64 C 497.04 341.36 499.06 340.29 499.16 338.13 C 499.28 333.98 496.70 330.50 495.13 326.85 C 488.26 311.93 480.80 297.30 473.28 282.70 C 465.90 266.72 455.36 252.54 446.45 237.42 C 444.82 234.45 442.48 231.84 439.22 230.68 C 433.07 227.27 426.54 224.63 419.78 222.73 C 419.44 222.87 418.77 223.13 418.44 223.27 M 339.44 232.72 C 339.65 233.28 340.06 234.39 340.27 234.94 C 343.52 238.47 347.63 241.18 351.95 243.24 C 355.19 236.81 358.90 230.55 361.27 223.75 C 354.71 228.18 347.44 231.96 339.44 232.72 M 206.46 236.58 C 208.78 236.71 211.08 237.03 213.34 237.62 C 213.42 238.64 213.51 239.67 213.60 240.70 C 213.09 241.02 212.08 241.66 211.57 241.97 C 211.75 242.95 211.94 243.92 212.15 244.90 C 214.31 243.25 216.73 242.10 219.53 242.50 C 220.15 243.64 220.77 244.79 221.39 245.95 C 220.25 247.43 219.22 249.02 219.11 250.96 C 222.36 250.62 226.13 247.06 229.03 249.96 C 229.99 252.24 228.83 254.74 228.39 257.04 C 231.31 256.32 234.34 255.17 237.28 256.58 C 237.52 257.16 238.00 258.32 238.24 258.90 C 237.68 261.06 237.02 263.21 236.32 265.35 C 236.70 265.28 237.47 265.15 237.85 265.09 C 239.62 263.35 241.92 262.47 244.39 262.35 C 246.98 264.95 246.07 268.79 246.41 272.10 C 249.06 271.40 251.86 270.44 254.55 271.62 C 254.18 274.49 253.91 277.38 253.67 280.28 C 256.17 278.70 259.83 278.12 261.29 275.37 C 261.20 271.69 258.96 268.24 256.45 265.68 C 240.50 253.42 224.61 241.09 208.56 228.98 C 207.17 231.27 206.95 233.99 206.46 236.58 M 306.51 230.43 C 306.23 232.60 306.20 234.78 306.25 236.97 C 309.60 235.74 312.83 234.19 315.94 232.43 C 314.28 228.81 309.64 230.45 306.51 230.43 M 315.41 241.60 C 313.84 242.67 313.61 244.63 313.77 246.39 C 317.94 243.81 321.44 240.31 325.37 237.39 C 325.47 236.71 325.69 235.36 325.79 234.69 C 321.58 235.60 318.63 238.99 315.41 241.60 M 336.79 244.46 C 331.56 248.70 327.22 253.91 322.37 258.55 C 321.64 267.05 322.84 275.57 323.06 284.08 C 323.29 286.74 322.72 290.11 325.25 291.87 C 332.38 278.62 339.93 265.59 347.21 252.42 C 348.57 249.54 344.98 248.74 343.24 247.51 C 341.46 245.83 339.64 242.90 336.79 244.46 M 302.74 252.52 C 302.07 259.17 301.07 265.82 301.15 272.52 C 303.51 271.73 303.77 268.98 304.96 267.12 C 306.63 263.30 310.00 260.28 310.77 256.07 C 310.71 252.18 309.98 248.17 308.07 244.74 C 307.48 244.66 306.30 244.50 305.70 244.42 C 303.84 246.72 302.97 249.60 302.74 252.52 M 156.63 249.77 C 152.79 253.44 152.87 259.06 152.40 263.97 C 151.89 272.04 156.21 279.65 162.25 284.69 C 165.20 287.50 169.63 287.09 173.19 285.83 C 174.43 284.19 173.26 282.26 172.38 280.80 C 170.01 277.47 172.43 273.46 173.39 270.06 C 174.92 266.85 173.13 263.39 170.97 260.99 C 168.70 259.25 165.89 258.25 163.93 256.10 C 162.15 254.12 160.77 251.83 159.12 249.75 C 158.28 249.75 157.45 249.76 156.63 249.77 M 175.36 261.44 C 175.39 262.03 175.45 263.23 175.48 263.82 C 177.01 264.34 178.66 264.96 180.27 264.33 C 181.07 263.16 181.08 261.68 181.30 260.33 C 179.32 260.71 177.34 261.09 175.36 261.44 M 314.71 262.49 C 310.30 266.60 306.85 271.56 303.05 276.20 C 301.64 277.74 301.01 279.78 301.23 281.85 C 303.71 281.05 305.28 278.78 307.21 277.17 C 307.98 276.41 308.39 275.47 308.46 274.35 C 308.69 274.52 309.15 274.87 309.38 275.04 C 311.77 272.53 314.44 270.29 316.79 267.75 C 318.27 266.37 317.81 264.26 317.80 262.47 C 316.77 262.48 315.74 262.48 314.71 262.49 M 189.15 267.01 C 185.70 268.88 181.85 271.00 180.45 274.91 C 178.87 278.50 179.69 283.57 183.42 285.48 C 188.26 288.00 193.56 289.44 198.51 291.70 C 199.95 292.33 200.29 293.98 200.58 295.36 C 198.28 295.56 195.93 295.32 193.71 296.06 C 192.46 300.61 189.38 304.63 188.63 309.24 C 198.35 309.21 208.80 305.99 214.81 297.90 C 216.13 296.55 215.43 294.98 214.64 293.60 C 212.54 293.65 210.44 293.63 208.35 293.52 C 208.98 288.36 212.67 284.06 213.33 278.86 C 213.48 273.64 210.70 268.23 205.83 266.02 C 200.57 263.28 194.20 264.31 189.15 267.01 M 143.32 269.08 C 141.37 278.89 143.27 289.99 150.46 297.34 C 153.87 299.57 157.71 303.70 162.08 301.49 C 162.88 299.01 164.39 296.48 163.68 293.78 C 163.27 291.20 160.73 289.82 158.90 288.26 C 152.24 283.80 148.84 276.20 145.27 269.31 C 144.78 269.26 143.81 269.14 143.32 269.08 M 302.91 294.85 C 300.44 296.65 300.22 299.76 300.23 302.57 C 300.77 302.55 301.86 302.49 302.41 302.46 C 307.68 297.08 313.25 291.99 318.52 286.60 C 320.41 284.79 319.37 281.95 319.27 279.70 C 312.53 283.14 307.95 289.42 302.91 294.85 M 178.59 312.25 C 179.38 314.27 178.43 316.24 177.71 318.13 C 176.72 320.49 176.39 323.90 173.14 323.92 C 168.53 319.72 164.39 315.04 159.63 311.00 C 157.39 309.15 155.55 306.64 152.70 305.69 C 153.24 306.96 154.03 308.11 155.05 309.04 C 160.68 314.63 166.27 320.28 172.09 325.66 C 174.17 327.85 177.30 326.48 178.05 323.82 C 180.08 316.89 183.04 310.28 185.50 303.49 C 186.27 301.00 188.16 298.47 186.92 295.80 C 182.74 300.53 183.40 308.04 178.59 312.25 M 218.54 300.63 C 216.32 302.72 214.25 305.05 211.49 306.47 C 203.60 310.93 194.99 315.41 185.62 314.59 C 185.79 317.61 188.99 316.92 191.09 316.93 C 200.84 315.81 210.85 312.78 218.10 305.84 C 218.83 304.71 219.62 303.62 220.43 302.54 C 220.51 302.01 220.68 300.95 220.77 300.42 C 220.21 300.47 219.10 300.58 218.54 300.63 M 305.59 311.45 C 303.92 314.17 302.79 317.21 302.92 320.46 C 306.28 318.41 308.61 315.11 311.50 312.49 C 314.55 309.86 316.13 305.98 317.32 302.23 C 312.42 303.69 309.83 308.79 305.59 311.45 M 217.16 312.35 C 207.27 318.58 195.46 322.47 183.69 321.47 C 183.40 322.01 182.84 323.08 182.55 323.62 C 183.23 327.13 184.27 330.70 186.51 333.56 C 195.54 345.41 205.55 356.47 215.19 367.81 C 217.14 370.38 220.79 370.43 223.58 369.37 C 229.87 367.15 236.01 364.49 242.24 362.11 C 247.15 360.26 251.08 355.39 251.00 350.02 C 250.99 342.80 251.06 335.58 250.84 328.36 C 242.65 321.57 235.21 313.90 226.99 307.15 C 222.81 306.34 220.29 310.42 217.16 312.35 M 379.86 352.02 C 380.02 352.46 380.34 353.32 380.50 353.75 C 397.32 359.42 411.90 370.92 421.94 385.51 C 423.25 385.54 424.57 385.55 425.89 385.54 C 424.99 382.59 422.78 380.35 420.82 378.09 C 412.07 369.75 403.68 360.42 392.51 355.30 C 388.46 353.67 384.35 351.62 379.86 352.02 M 373.05 362.65 C 370.12 366.29 367.53 370.58 367.23 375.35 C 382.02 381.70 397.66 385.76 412.89 390.87 C 413.77 390.81 415.52 390.70 416.39 390.64 C 416.14 390.08 415.64 388.97 415.39 388.42 C 406.22 376.73 394.16 367.25 380.41 361.55 C 377.94 360.27 375.24 361.34 373.05 362.65 M 308.37 459.11 C 306.51 460.15 308.16 461.36 308.66 462.42 C 308.10 462.62 306.97 463.02 306.40 463.23 C 306.16 467.18 305.41 471.10 305.36 475.07 C 305.53 477.77 306.51 480.55 305.44 483.20 C 304.48 487.05 300.16 488.04 297.01 489.51 C 285.58 493.23 273.45 493.93 261.59 495.43 C 260.66 511.62 261.73 527.82 262.43 544.00 C 262.55 546.90 262.99 549.78 263.96 552.53 C 264.45 552.55 265.44 552.57 265.93 552.59 L 264.27 552.78 C 265.65 555.31 267.11 557.80 268.72 560.20 C 268.48 569.82 268.12 579.44 267.89 589.06 C 267.08 598.04 268.69 607.00 270.65 615.73 C 282.72 616.28 294.78 616.83 306.85 617.24 C 310.69 617.06 314.60 616.71 318.23 615.36 C 319.75 614.76 321.40 613.69 321.70 611.96 C 323.68 593.30 324.36 574.49 324.44 555.74 C 320.30 564.06 316.57 572.57 312.49 580.92 C 311.79 579.35 311.42 577.62 312.09 575.96 C 319.44 547.05 326.35 518.02 333.67 489.10 C 334.46 486.58 333.32 484.12 332.46 481.81 C 326.39 475.15 319.29 469.50 312.97 463.07 C 311.51 461.68 310.23 459.97 308.37 459.11 M 386.42 483.70 C 386.35 485.55 385.86 487.53 386.73 489.27 C 397.90 514.45 409.05 539.63 420.14 564.84 C 421.44 568.29 424.82 570.25 426.66 573.37 C 429.00 576.48 429.48 580.45 431.06 583.94 C 435.14 593.25 440.73 601.79 445.56 610.71 C 459.24 608.82 472.90 606.73 486.53 604.50 C 486.43 602.96 486.79 601.30 486.04 599.89 C 483.14 594.07 481.05 587.91 478.47 581.96 C 465.06 549.34 451.71 516.70 438.21 484.13 C 437.43 481.48 435.19 479.14 432.22 479.74 C 416.96 481.10 401.66 482.15 386.42 483.70 M 344.07 482.78 C 343.63 482.84 342.75 482.95 342.31 483.01 C 342.62 483.03 343.25 483.06 343.56 483.07 C 351.10 509.09 365.59 532.33 380.37 554.78 C 384.89 561.64 393.17 564.60 397.95 571.23 C 403.66 578.05 408.17 585.73 412.90 593.23 C 412.19 593.13 410.79 592.93 410.09 592.83 C 404.57 587.38 399.54 581.41 394.02 575.94 C 397.14 582.64 400.81 589.07 404.05 595.71 C 405.39 598.00 406.20 600.95 408.76 602.21 C 418.17 608.29 429.70 610.88 440.80 609.37 C 438.81 603.28 434.80 597.87 432.11 592.00 C 428.01 583.17 422.02 575.46 417.06 567.13 C 413.16 559.71 411.12 551.20 406.68 544.18 C 406.83 543.02 406.45 541.91 405.97 540.89 C 398.12 522.11 390.34 503.30 382.46 484.53 C 381.02 484.10 379.59 483.60 378.10 483.39 C 366.57 482.91 354.89 483.35 343.45 481.62 C 343.61 481.91 343.91 482.49 344.07 482.78 M 251.77 495.52 C 250.07 512.66 252.02 529.87 253.14 546.99 C 253.96 560.70 255.92 574.32 256.42 588.04 C 257.39 596.88 258.57 605.71 260.40 614.41 C 261.28 614.38 263.04 614.30 263.93 614.26 C 264.17 608.52 264.49 602.78 264.32 597.03 C 263.98 584.61 266.33 571.75 261.96 559.78 C 259.16 553.99 258.81 547.43 258.19 541.14 C 257.59 526.45 257.28 511.74 256.44 497.06 C 256.35 494.60 253.39 495.34 251.77 495.52 M 458.01 616.12 C 448.38 617.32 438.59 618.06 428.93 616.88 C 424.91 616.43 421.30 614.49 417.50 613.27 C 417.47 613.85 417.41 615.03 417.38 615.61 C 417.73 616.05 418.43 616.91 418.78 617.35 C 426.82 621.67 436.04 622.84 445.01 623.51 C 458.10 623.92 471.36 623.07 484.01 619.47 C 485.20 619.00 487.28 619.10 487.41 617.45 C 489.75 618.87 492.55 617.05 495.00 616.70 C 494.68 614.60 494.29 612.53 493.76 610.48 C 492.17 610.27 490.58 609.94 488.98 609.99 C 478.99 613.39 468.41 614.54 458.01 616.12 M 257.82 621.63 C 255.02 624.14 258.90 628.38 261.96 628.02 C 283.38 630.56 305.18 630.48 326.52 627.27 C 326.49 626.29 326.43 625.33 326.34 624.37 C 322.62 621.40 317.47 621.74 313.12 622.86 C 294.70 624.39 276.22 621.93 257.82 621.63 M 469.94 630.82 C 457.24 632.14 444.30 632.87 431.68 630.49 C 433.41 634.52 434.61 639.04 437.72 642.29 C 440.42 645.12 444.72 643.80 447.96 645.46 C 449.83 646.50 450.70 648.54 451.69 650.33 C 454.28 652.65 457.27 654.60 460.89 654.64 C 464.73 654.66 469.37 658.10 472.58 654.55 C 476.30 650.64 478.86 644.71 484.92 644.01 C 490.06 644.61 494.93 646.60 500.02 647.51 C 500.70 647.17 502.04 646.49 502.71 646.15 C 502.49 644.59 502.64 642.82 501.37 641.68 C 497.91 637.81 494.13 634.23 490.90 630.17 C 489.79 628.63 487.84 627.48 485.92 628.23 C 480.69 629.63 475.29 630.16 469.94 630.82 M 234.98 638.90 C 231.64 641.74 230.68 646.53 231.52 650.69 C 235.59 651.64 239.41 649.52 242.84 647.60 C 248.58 644.19 255.37 643.01 261.96 642.83 C 268.78 642.31 275.36 644.49 281.97 645.79 C 287.98 646.88 293.71 649.79 299.94 649.33 C 305.58 649.02 311.22 647.74 316.32 645.29 C 316.88 641.22 317.75 636.11 322.18 634.59 L 320.00 634.98 L 320.64 633.19 C 319.92 633.65 319.17 634.05 318.38 634.38 C 310.24 634.72 302.09 634.57 293.95 634.96 C 281.66 634.17 269.37 633.31 257.08 632.45 C 249.29 631.86 240.99 633.70 234.98 638.90 Z" />
<path fill="#020202" opacity="1.00" d=" M 332.02 51.06 C 338.76 45.42 347.51 40.51 356.59 42.42 C 356.40 44.03 357.08 46.44 354.97 46.96 C 349.78 49.06 345.25 52.35 340.85 55.75 C 335.06 59.71 330.46 66.23 322.85 66.56 C 321.44 59.82 326.93 54.46 332.02 51.06 Z" />
<path fill="#020202" opacity="1.00" d=" M 338.29 167.82 C 344.60 167.57 351.32 168.67 356.57 172.37 C 359.12 173.68 358.01 176.66 358.42 178.92 C 359.26 180.96 360.24 182.99 360.29 185.26 C 359.42 185.30 357.68 185.39 356.80 185.44 C 356.00 184.74 355.20 184.05 354.41 183.35 C 348.59 187.54 344.90 193.92 339.20 198.24 C 327.74 206.89 312.82 209.55 298.75 208.35 C 298.95 209.76 299.16 211.19 299.40 212.60 C 298.76 212.67 297.49 212.81 296.85 212.88 C 296.42 212.66 295.57 212.23 295.14 212.01 C 292.89 209.54 290.02 207.23 289.16 203.84 C 289.42 199.39 290.05 194.95 290.65 190.53 C 291.66 190.48 292.68 190.44 293.70 190.41 C 293.99 192.40 294.28 194.40 294.60 196.40 C 302.19 197.70 309.85 195.64 316.89 192.91 C 326.16 188.13 335.34 182.83 342.86 175.51 C 342.78 174.64 342.71 173.77 342.64 172.91 C 340.62 171.74 337.74 170.73 338.29 167.82 M 347.26 175.47 C 340.58 183.74 331.08 188.98 322.13 194.42 C 313.93 199.59 303.91 199.38 294.60 200.04 C 294.90 201.29 295.28 202.52 295.63 203.76 C 307.55 206.17 320.46 205.17 331.08 198.87 C 339.35 194.53 345.09 186.96 350.96 179.95 C 352.54 178.39 352.52 176.22 351.39 174.41 C 349.97 174.63 348.59 174.98 347.26 175.47 Z" />
<path fill="#020202" opacity="1.00" d=" M 331.55 210.82 C 333.11 209.70 337.42 210.04 335.70 212.82 C 330.85 216.54 324.77 218.37 318.66 217.56 C 318.35 216.45 318.04 215.35 317.74 214.25 C 322.47 213.80 327.40 213.37 331.55 210.82 Z" />
<path fill="#020202" opacity="1.00" d=" M 363.17 297.38 C 372.42 292.35 380.99 286.16 390.10 280.91 C 391.64 280.04 393.40 280.47 395.04 280.66 C 397.38 286.36 399.44 292.16 401.76 297.86 C 402.35 299.56 403.30 301.64 402.05 303.29 C 388.54 304.27 375.00 302.63 361.49 302.13 C 360.70 300.25 361.43 298.37 363.17 297.38 M 371.32 296.47 C 371.30 296.99 371.26 298.03 371.24 298.54 C 378.35 299.26 385.47 298.44 392.59 298.42 C 393.39 297.60 394.18 296.78 394.99 295.97 C 394.20 292.59 393.24 288.60 390.21 286.57 C 383.40 288.69 376.94 292.03 371.32 296.47 Z" />
<path fill="#020202" opacity="1.00" d=" M 185.75 326.73 C 191.22 324.26 197.84 324.05 203.21 326.92 C 203.58 328.05 203.44 329.26 203.51 330.44 C 202.13 330.58 200.75 330.68 199.37 330.75 C 199.54 330.98 199.87 331.45 200.04 331.69 C 195.49 332.55 190.81 332.18 186.44 330.62 C 186.11 330.18 185.45 329.30 185.12 328.86 C 185.28 328.33 185.59 327.26 185.75 326.73 Z" />
<path fill="#020202" opacity="1.00" d=" M 435.81 366.42 C 440.65 364.46 445.04 369.52 445.17 374.07 C 443.77 378.44 436.85 378.89 434.73 374.88 C 433.58 372.06 433.51 368.69 435.81 366.42 Z" />
<path fill="#020202" opacity="1.00" d=" M 298.57 370.70 C 301.68 369.11 304.94 367.14 308.56 368.35 C 310.33 372.97 310.33 378.06 309.58 382.90 C 308.84 388.55 301.10 392.91 296.63 388.32 C 292.68 382.86 295.19 375.75 298.57 370.70 M 301.04 376.45 C 303.17 376.91 305.67 377.13 306.88 374.86 C 304.62 374.07 302.31 374.24 301.04 376.45 Z" />
<path fill="#020202" opacity="1.00" d=" M 321.29 373.43 C 324.65 371.37 328.08 368.83 332.27 369.57 C 336.12 375.88 334.02 384.20 329.02 389.24 C 325.29 389.62 320.96 387.98 319.87 384.12 C 319.84 380.51 320.40 376.92 321.29 373.43 M 328.23 377.55 C 329.20 377.49 330.17 377.44 331.15 377.39 C 331.01 376.47 330.74 374.63 330.60 373.72 C 328.45 373.97 327.64 375.53 328.23 377.55 Z" />
<path fill="#020202" opacity="1.00" d=" M 321.45 409.50 C 324.40 406.82 328.04 403.29 332.41 404.67 C 333.18 405.65 333.81 406.75 334.49 407.82 C 334.29 411.18 334.76 414.64 333.87 417.94 C 332.81 420.20 331.15 422.11 329.74 424.15 C 326.66 425.94 323.28 425.56 320.25 423.91 C 319.02 419.29 317.28 413.15 321.45 409.50 M 328.41 409.70 C 324.83 411.79 332.23 414.56 332.10 411.01 C 332.00 408.93 329.79 409.36 328.41 409.70 Z" />
<path fill="#020202" opacity="1.00" d=" M 297.67 407.69 C 301.38 405.37 306.00 404.06 310.20 405.92 C 311.21 407.79 312.50 409.84 311.64 412.05 C 310.28 417.19 309.57 423.82 304.18 426.40 C 301.98 426.99 299.88 426.19 297.94 425.22 C 294.06 420.00 295.90 413.35 297.67 407.69 M 303.79 411.66 C 302.68 413.74 305.14 414.72 306.49 415.73 C 307.29 414.04 307.61 412.21 307.61 410.36 C 306.27 410.57 304.22 409.86 303.79 411.66 Z" />
</g>
</svg>
